<?xml version="1.0" encoding="utf-8"?>
<!-- Generator: Adobe Illustrator 28.0.0, SVG Export Plug-In . SVG Version: 6.00 Build 0)  -->
<svg version="1.1" id="Layer_1" xmlns="http://www.w3.org/2000/svg" xmlns:xlink="http://www.w3.org/1999/xlink" x="0px" y="0px"
	 viewBox="0 0 16 16" style="enable-background:new 0 0 16 16;" xml:space="preserve">
<style type="text/css">
	.st0{fill:#41ECAD;}
	.st1{fill:#E0E0E0;}
</style>
<path class="st0" d="M3,7.3c-1.7,0-3,1.3-3,3s1.3,3,3,3h2v-6H3z M6,7.3v6h2v-4c0.6,0,1,0.4,1,1v3h2v-3c0-1.7-1.3-3-3-3H6z M11,9.3
	c0,1.7,1.3,3,3,3c0,0.6-0.4,1-1,1h-1v2h1c1.7,0,3-1.3,3-3v-5h-2v3c-0.6,0-1-0.4-1-1v-2h-2V9.3z M3,11.3c-0.6,0-1-0.4-1-1
	c0-0.6,0.4-1,1-1V11.3z"/>
<path class="st1" d="M4.7,2.2C4.5,2.3,4.4,2.5,4.4,2.7v3.1c0,0.2,0.1,0.4,0.3,0.5l3.1,1.5c0.1,0.1,0.3,0.1,0.5,0l3.1-1.5
	c0.2-0.1,0.3-0.3,0.3-0.5V2.7c0-0.2-0.1-0.4-0.3-0.5L8.2,0.7c-0.1-0.1-0.3-0.1-0.5,0L4.7,2.2z M8,1.7l1.9,1L8,3.6l-1.9-1L8,1.7z
	 M5.4,3.5l2,1v1.9l-2-1V3.5z"/>
</svg>
