<?xml version="1.0" encoding="utf-8"?>
<!-- Generator: Adobe Illustrator 28.0.0, SVG Export Plug-In . SVG Version: 6.00 Build 0)  -->
<svg version="1.1" id="Layer_1" xmlns="http://www.w3.org/2000/svg" xmlns:xlink="http://www.w3.org/1999/xlink" x="0px" y="0px"
	 viewBox="0 0 16 16" style="enable-background:new 0 0 16 16;" xml:space="preserve">
<style type="text/css">
	.st0{fill:#E0E0E0;}
	.st1{fill:none;}
</style>
<g>
	<path class="st0" d="M14.6,14.5H9.1C9.1,14,9.3,13.5,9.7,13c0.3-0.5,0.9-1,1.8-1.7c0.5-0.4,0.9-0.7,1-0.9c0.2-0.2,0.2-0.4,0.2-0.6
		c0-0.2-0.1-0.4-0.2-0.5c-0.1-0.1-0.3-0.2-0.6-0.2c-0.2,0-0.4,0.1-0.6,0.2c-0.1,0.1-0.2,0.4-0.3,0.8L9.2,9.9C9.3,9.4,9.4,9,9.6,8.7
		c0.2-0.3,0.5-0.5,0.8-0.7c0.4-0.2,0.8-0.2,1.5-0.2c0.6,0,1.2,0.1,1.5,0.2c0.4,0.1,0.6,0.4,0.9,0.7c0.2,0.3,0.3,0.6,0.3,1
		c0,0.4-0.1,0.8-0.4,1.2c-0.2,0.4-0.7,0.8-1.3,1.2c-0.4,0.3-0.6,0.4-0.7,0.5c-0.1,0.1-0.3,0.2-0.4,0.4h2.9V14.5z"/>
</g>
<g>
	<path class="st1" d="M6.8,2.8c-2.2,0-4,1.8-4,4c0,2.2,1.8,4,4,4c0.7,0,1.3-0.2,1.9-0.5l0.1-0.4C8.8,9.2,9,8.8,9.2,8.4
		c0.2-0.4,0.6-0.7,1-0.9c0.1-0.1,0.3-0.1,0.5-0.2c0-0.2,0.1-0.4,0.1-0.6C10.8,4.6,9,2.8,6.8,2.8z"/>
	<path class="st1" d="M11,11.1c0.1-0.1,0.1-0.1,0.2-0.2c0.6-0.5,0.9-0.7,0.9-0.8c0.1-0.1,0.1-0.2,0.1-0.3c0-0.1,0-0.1-0.1-0.2
		c0,0-0.1,0-0.1,0c-0.2,0.3-0.3,0.6-0.5,0.8l0,0.2l-0.1,0C11.3,10.8,11.1,10.9,11,11.1z"/>
	<path class="st0" d="M11.7,9.6c0,0-0.1,0.1-0.2,0.5l0,0.3c0.2-0.3,0.4-0.5,0.5-0.8C11.9,9.6,11.8,9.6,11.7,9.6z"/>
	<path class="st0" d="M11.4,10.6l-2.7-0.2l0-0.1c-0.6,0.3-1.2,0.5-1.9,0.5c-2.2,0-4-1.8-4-4c0-2.2,1.8-4,4-4s4,1.8,4,4
		c0,0.2,0,0.4-0.1,0.6c0.3-0.1,0.7-0.1,1.2-0.1c0.3,0,0.6,0,0.8,0.1c0-0.2,0-0.4,0-0.6c0-3.3-2.7-6-6-6s-6,2.7-6,6c0,3.3,2.7,6,6,6
		c1.3,0,2.4-0.4,3.4-1c0.2-0.2,0.5-0.4,0.8-0.7C11.1,10.9,11.3,10.8,11.4,10.6z"/>
	<path class="st0" d="M11.4,12.7c0.2-0.2,0.3-0.3,0.5-0.4c0.1-0.1,0.4-0.3,0.8-0.6c0.6-0.4,1-0.8,1.2-1.1c0.2-0.3,0.3-0.6,0.3-0.9
		c0-0.3-0.1-0.5-0.2-0.8c-0.2-0.2-0.4-0.4-0.6-0.5c-0.3-0.1-0.7-0.2-1.3-0.2c-0.5,0-1,0.1-1.3,0.2C10.4,8.6,10.2,8.8,10,9
		C10,9.1,9.9,9.3,9.8,9.5l0.8,0.1c0.1-0.3,0.2-0.5,0.3-0.6c0.5-0.5,1.3-0.5,1.8,0c0.2,0.2,0.4,0.5,0.4,0.9c0,0.3-0.1,0.6-0.3,0.9
		c-0.2,0.3-0.6,0.6-1.1,1c-0.8,0.6-1.4,1.1-1.7,1.6c-0.2,0.2-0.3,0.5-0.4,0.8h4.4v-0.5h-3.6L11.4,12.7z"/>
	<path class="st0" d="M12.2,12.6c0.1-0.1,0.4-0.3,0.7-0.5c0.6-0.4,1.1-0.8,1.3-1.2c0.2-0.4,0.4-0.8,0.4-1.2c0-0.4-0.1-0.7-0.3-1
		c-0.2-0.3-0.5-0.5-0.9-0.7c-0.4-0.1-0.9-0.2-1.5-0.2c-0.6,0-1.1,0.1-1.5,0.2c-0.4,0.2-0.6,0.4-0.8,0.7C9.4,9,9.3,9.4,9.2,9.9
		l1.8,0.1c0.1-0.4,0.2-0.6,0.3-0.8c0.1-0.1,0.3-0.2,0.6-0.2c0.2,0,0.4,0.1,0.6,0.2c0.1,0.1,0.2,0.3,0.2,0.5c0,0.2-0.1,0.4-0.2,0.6
		c-0.2,0.2-0.5,0.5-1,0.9C10.6,12,10,12.5,9.7,13c-0.3,0.5-0.5,1-0.6,1.5h5.5V13h-2.9C11.9,12.9,12.1,12.7,12.2,12.6z M14.1,13.5V14
		H9.7c0.1-0.3,0.2-0.5,0.4-0.8c0.3-0.4,0.9-1,1.7-1.6c0.6-0.4,1-0.8,1.1-1c0.2-0.3,0.3-0.6,0.3-0.9c0-0.3-0.1-0.6-0.4-0.9
		c-0.5-0.5-1.4-0.5-1.8,0c-0.2,0.1-0.3,0.3-0.3,0.6L9.8,9.5C9.9,9.3,10,9.1,10,9c0.1-0.2,0.3-0.4,0.6-0.5c0.3-0.1,0.7-0.2,1.3-0.2
		c0.6,0,1,0.1,1.3,0.2c0.3,0.1,0.5,0.3,0.6,0.5c0.2,0.2,0.2,0.5,0.2,0.8c0,0.3-0.1,0.6-0.3,0.9c-0.2,0.3-0.6,0.7-1.2,1.1
		c-0.4,0.3-0.6,0.5-0.8,0.6c-0.1,0.1-0.3,0.3-0.5,0.4l-0.9,0.9H14.1z"/>
</g>
</svg>
