<?xml version="1.0" encoding="utf-8"?>
<!-- Generator: Adobe Illustrator 28.0.0, SVG Export Plug-In . SVG Version: 6.00 Build 0)  -->
<svg version="1.1" id="Layer_1" xmlns="http://www.w3.org/2000/svg" xmlns:xlink="http://www.w3.org/1999/xlink" x="0px" y="0px"
	 viewBox="0 0 16 16" style="enable-background:new 0 0 16 16;" xml:space="preserve">
<style type="text/css">
	.st0{fill:#B3B3B3;}
	.st1{fill:#E0E0E0;}
	.st2{fill:#CE5F5F;}
</style>
<path class="st0" d="M3,0.8c-1.1,0-2,0.9-2,2v10c0,1.1,0.9,2,2,2h10c1.1,0,2-0.9,2-2v-10c0-1.1-0.9-2-2-2H3z M3,2.8h4v3l-2,2l2,2v3
	H3V2.8z M9,2.8h4v10H9v-3l2-2l-2-2V2.8z"/>
<path class="st0" d="M36.2-10.1l-5.6,5.6l-1.7-1.7l-1.5,1.5l3.2,3.2l7.1-7.1L36.2-10.1z"/>
<path class="st0" d="M15,2.8c0-1.1-0.9-2-2-2H3c-1.1,0-2,0.9-2,2v10c0,1.1,0.9,2,2,2h10c1.1,0,2-0.9,2-2V2.8z M13,2.8v4h-3l-2-2
	l-2,2H3v-4H13z M13,8.8v4H3v-4h3l2,2l2-2H13z"/>
<path class="st1" d="M32,3.4c0-1.1-0.9-2-2-2H20c-1.1,0-2,0.9-2,2v10c0,1.1,0.9,2,2,2h10c1.1,0,2-0.9,2-2V3.4z M30,3.4v4h-3l-2-2
	l-2,2h-3v-4H30z M30,9.4v4H20v-4h3l2,2l2-2H30z"/>
<path class="st1" d="M30,15.4c1.1,0,2-0.9,2-2v-10c0-1.1-0.9-2-2-2H20c-1.1,0-2,0.9-2,2v10c0,1.1,0.9,2,2,2H30z M30,13.4h-4v-3l2-2
	l-2-2v-3h4V13.4z M24,13.4h-4v-10h4v3l-2,2l2,2V13.4z"/>
<g>
	<polygon class="st2" points="18,21.8 18,23.8 21,23.8 20,22.8 21,21.8 	"/>
	<polygon class="st2" points="28,23.8 28,21.8 25,21.8 26,22.8 25,23.8 	"/>
	<polygon class="st2" points="23,19.8 24,20.8 24,17.8 22,17.8 22,20.8 	"/>
	<polygon class="st2" points="23,25.8 22,24.8 22,27.8 24,27.8 24,24.8 	"/>
</g>
<g>
	<polygon class="st1" points="8,4.8 7,5.8 6,6.8 5,7.8 6,8.8 7,9.8 8,10.8 9,9.8 10,8.8 11,7.8 10,6.8 9,5.8 	"/>
	<path class="st1" d="M13,0.8H3c-1.1,0-2,0.9-2,2v10c0,1.1,0.9,2,2,2h10c1.1,0,2-0.9,2-2v-10C15,1.7,14.1,0.8,13,0.8z M13,6.8v2v4H9
		H7H3v-4v-2v-4h4h2h4V6.8z"/>
</g>
<path class="st1" d="M52.1,0.2c0-1.1-0.9-2-2-2h-10c-1.1,0-2,0.9-2,2v10c0,1.1,0.9,2,2,2h10c1.1,0,2-0.9,2-2V0.2z M50.1,0.2v4h-3
	l-2-2l-2,2h-3v-4H50.1z M50.1,6.2v4h-10v-4h3l2,2l2-2H50.1z"/>
<path class="st1" d="M50.1,12.2c1.1,0,2-0.9,2-2v-10c0-1.1-0.9-2-2-2h-10c-1.1,0-2,0.9-2,2v10c0,1.1,0.9,2,2,2H50.1z M50.1,10.2h-4
	v-3l2-2l-2-2v-3h4V10.2z M44.1,10.2h-4v-10h4v3l-2,2l2,2V10.2z"/>
</svg>
