<?xml version="1.0" encoding="utf-8"?>
<!-- Generator: Adobe Illustrator 28.0.0, SVG Export Plug-In . SVG Version: 6.00 Build 0)  -->
<svg version="1.1" id="Layer_1" xmlns="http://www.w3.org/2000/svg" xmlns:xlink="http://www.w3.org/1999/xlink" x="0px" y="0px"
	 viewBox="0 0 16 16" style="enable-background:new 0 0 16 16;" xml:space="preserve">
<style type="text/css">
	.st0{fill:#E0E0E0;}
	.st1{fill:none;stroke:#E0E0E0;}
</style>
<path class="st0" d="M1,3.8C0.7,3.9,0.4,4.4,0.4,4.7v6.5c0,0.5,0.3,0.8,0.6,0.9l6.6,3.5c0.3,0.2,0.6,0.2,0.9,0l6.5-3.3
	c0.3-0.2,0.6-0.6,0.6-0.9V4.7c0-0.5-0.3-0.8-0.6-0.9L8.5,0.5c-0.3-0.2-0.6-0.2-0.9,0L1,3.8z M8.1,2.7l4.1,2.1l-4.1,2L4,4.7L8.1,2.7z
	 M2.7,6.5L7,8.6v4.1l-4.4-2.1V6.5z"/>
<circle class="st1" cx="8" cy="8" r="3.8"/>
</svg>
