<?xml version="1.0" encoding="utf-8"?>
<!-- Generator: Adobe Illustrator 28.0.0, SVG Export Plug-In . SVG Version: 6.00 Build 0)  -->
<svg version="1.1" id="Layer_1" xmlns="http://www.w3.org/2000/svg" xmlns:xlink="http://www.w3.org/1999/xlink" x="0px" y="0px"
	 viewBox="0 0 16 16" style="enable-background:new 0 0 16 16;" xml:space="preserve">
<style type="text/css">
	.st0{fill:#E0E0E0;}
</style>
<path class="st0" d="M3.3,5.2C3.1,5.3,2.9,5.6,2.9,5.8v4.3c0,0.3,0.2,0.5,0.4,0.6L7.7,13c0.2,0.1,0.4,0.1,0.6,0l4.3-2.2
	c0.2-0.1,0.4-0.4,0.4-0.6V5.8c0-0.3-0.2-0.5-0.4-0.6L8.3,3C8.1,2.9,7.9,2.9,7.7,3L3.3,5.2z M8,4.5l2.7,1.4L8,7.2L5.3,5.8L8,4.5z
	 M4.4,7l2.9,1.4v2.7L4.4,9.7V7z"/>
<path class="st0" d="M2.3,0.1C1,0.1,0,1.1,0,2.4v11.4C0,15,1,16,2.3,16h11.4c1.3,0,2.3-1,2.3-2.3V2.4c0-1.3-1-2.3-2.3-2.3H2.3z
	 M2.3,1.2h11.4c0.6,0,1.1,0.5,1.1,1.1v11.4c0,0.6-0.5,1.1-1.1,1.1H2.3c-0.6,0-1.1-0.5-1.1-1.1V2.4C1.1,1.7,1.6,1.2,2.3,1.2z
	 M2.3,2.4v2.3h2.3V2.4H2.3z M11.4,2.4v2.3h2.3V2.4H11.4z M2.3,11.5v2.3h2.3v-2.3H2.3z M11.4,11.5v2.3h2.3v-2.3H11.4z"/>
</svg>
