<?xml version="1.0" encoding="utf-8"?>
<!-- Generator: Adobe Illustrator 28.0.0, SVG Export Plug-In . SVG Version: 6.00 Build 0)  -->
<svg version="1.1" id="Layer_1" xmlns="http://www.w3.org/2000/svg" xmlns:xlink="http://www.w3.org/1999/xlink" x="0px" y="0px"
	 viewBox="0 0 16 16" style="enable-background:new 0 0 16 16;" xml:space="preserve">
<style type="text/css">
	.st0{fill:#E0E0E0;}
	.st1{fill-opacity:0.2;}
	.st2{fill:#8161C6;}
	.st3{fill:#FFFFFF;}
</style>
<path class="st0" d="M6,1C4.9,1,4,1.9,4,3v7H1v3c0,1.1,0.9,2,2,2h7c1.1,0,2-0.9,2-2V5h3V3c0-1.1-0.9-2-2-2H6z"/>
<path class="st1" d="M6,1C4.9,1,4,1.9,4,3v7H1v3c0,1.1,0.9,2,2,2s2-0.9,2-2V3c0-0.6,0.4-1,1-1s1,0.4,1,1v3h5V5H8V3C8,1.9,7.1,1,6,1z
	 M2,11h2v2c0,0.6-0.4,1-1,1s-1-0.4-1-1V11z"/>
<g>
	<g>
		<g>
			<g>
				<path class="st2" d="M6.9,12.2l-5.3-0.1l-0.6-1.1l3.1-4.3l0.7,1.5l-1.9,2.6l3.2,0L6.9,12.2z"/>
				<path class="st3" d="M7.5,12.6l-6.1-0.2l-0.8-1.5l3.5-5l1.1,2.2l-1.6,2.2l2.7,0L7.5,12.6z M1.9,11.7l4.4,0.1l-0.4-0.7l-3.7,0
					l2.2-3L4.1,7.3L1.5,11L1.9,11.7z"/>
			</g>
			<g>
				<path class="st2" d="M7.4,2.7L10,13.1l-1.3,0.7L6.1,3.4L7.4,2.7z"/>
				<path class="st3" d="M8.4,14.4L5.7,3.2l2-1l2.8,11.1L8.4,14.4z M6.5,3.6l2.4,9.7l0.6-0.3L7.2,3.3L6.5,3.6z"/>
			</g>
			<g>
				<path class="st2" d="M9.1,4.1l5.3,0.1l0.6,1.1l-3.1,4.3l-0.7-1.5l1.9-2.6l-3.2,0L9.1,4.1z"/>
				<path class="st3" d="M11.8,10.5l-1.1-2.2L12.3,6L9.6,6L8.5,3.7l6.1,0.2l0.8,1.5L11.8,10.5z M11.6,8.3L11.9,9l2.6-3.6l-0.4-0.7
					L9.7,4.5l0.4,0.7l3.7,0L11.6,8.3z"/>
			</g>
		</g>
	</g>
	<g>
		<g>
			<path class="st2" d="M6.9,12.2l-5.3-0.1l-0.6-1.1l3.1-4.3l0.7,1.5l-1.9,2.6l3.2,0L6.9,12.2z"/>
			<path class="st2" d="M7.4,2.7L10,13.1l-1.3,0.7L6.1,3.4L7.4,2.7z"/>
			<path class="st2" d="M9.1,4.1l5.3,0.1l0.6,1.1l-3.1,4.3l-0.7-1.5l1.9-2.6l-3.2,0L9.1,4.1z"/>
		</g>
	</g>
</g>
</svg>
