<?xml version="1.0" encoding="utf-8"?>
<!-- Generator: Adobe Illustrator 28.0.0, SVG Export Plug-In . SVG Version: 6.00 Build 0)  -->
<svg version="1.1" id="Layer_1" xmlns="http://www.w3.org/2000/svg" xmlns:xlink="http://www.w3.org/1999/xlink" x="0px" y="0px"
	 viewBox="0 0 16 16" style="enable-background:new 0 0 16 16;" xml:space="preserve">
<style type="text/css">
	.st0{fill:#E0E0E0;}
</style>
<path class="st0" d="M13.9,9c0.6-0.6,0.6-1.5,0-2.1L8.7,1.7c-0.6-0.6-1.5-0.6-2.1,0L1.4,7C0.8,7.5,0.8,8.5,1.4,9l5.2,5.2
	c0.6,0.6,1.5,0.6,2.1,0L13.9,9z M12.9,8l-2.1,2.1L9.2,8.5V6.4H7.1L5.6,4.9l2.1-2.1L12.9,8z M9.7,11.1l-2.1,2.1L2.5,8l2.1-2.1
	l1.6,1.6v2.1h2.1L9.7,11.1z"/>
</svg>
