<?xml version="1.0" encoding="utf-8"?>
<!-- Generator: Adobe Illustrator 28.0.0, SVG Export Plug-In . SVG Version: 6.00 Build 0)  -->
<svg version="1.1" id="Layer_1" xmlns="http://www.w3.org/2000/svg" xmlns:xlink="http://www.w3.org/1999/xlink" x="0px" y="0px"
	 viewBox="0 0 16 16" style="enable-background:new 0 0 16 16;" xml:space="preserve">
<style type="text/css">
	.st0{fill:#E0E0E0;}
</style>
<path class="st0" d="M8.8,4.8v9h2v-3h1c1.6,0,3-1.4,3-3s-1.4-3-3-3h-3V4.8z M10.9,6.8h1c0.5,0,1,0.5,1,1s-0.5,1-1,1h-1V6.8z
	 M5.8,11.9c-0.5,0-1,0.5-1,1s0.5,1,1,1s1-0.5,1-1C6.8,12.3,6.3,11.9,5.8,11.9z"/>
<path class="st0" d="M4.3,5.5C5.5,6.4,7.2,6,8,4.8s0.5-2.9-0.8-3.7S4.4,0.6,3.5,1.8C3,2.7,3,3.9,3.5,4.8L1.2,7.1L2,7.9L4.3,5.5z
	 M7.4,3.3c0,0.9-0.7,1.6-1.6,1.6S4.2,4.2,4.2,3.3s0.7-1.6,1.6-1.6S7.4,2.4,7.4,3.3z"/>
</svg>
