<?xml version="1.0" encoding="utf-8"?>
<!-- Generator: Adobe Illustrator 28.0.0, SVG Export Plug-In . SVG Version: 6.00 Build 0)  -->
<svg version="1.1" id="Layer_1" xmlns="http://www.w3.org/2000/svg" xmlns:xlink="http://www.w3.org/1999/xlink" x="0px" y="0px"
	 viewBox="0 0 16 16" style="enable-background:new 0 0 16 16;" xml:space="preserve">
<style type="text/css">
	.st0{fill:#E0E0E0;}
</style>
<path class="st0" d="M7.3,4.8v9h2v-3h1c1.6,0,3-1.4,3-3s-1.4-3-3-3h-3V4.8z M9.4,6.8h1c0.5,0,1,0.5,1,1s-0.5,1-1,1h-1V6.8z
	 M4.3,11.9c-0.5,0-1,0.5-1,1c0,0.5,0.5,1,1,1s1-0.5,1-1C5.3,12.2,4.8,11.9,4.3,11.9z"/>
<g>
	<path class="st0" d="M1.8,7.8L1.5,7C1.4,6.6,1.3,6.3,1.3,6s0.1-0.6,0.3-0.9S2,4.6,2.3,4.4l0.2,0.6C2.3,5.3,2.3,5.5,2.3,5.7l0.4-0.1
		l0.6,1.7L1.8,7.8z M3.8,7.1L3.5,6.3C3.4,5.9,3.3,5.5,3.3,5.2c0-0.3,0.1-0.6,0.3-0.9C3.7,4.1,4,3.9,4.3,3.7l0.2,0.6
		C4.3,4.5,4.3,4.7,4.3,5l0.4-0.1l0.6,1.7L3.8,7.1z"/>
	<path class="st0" d="M12.1,0.8l0.3,0.8c0.2,0.4,0.2,0.8,0.2,1.1c0,0.3-0.1,0.6-0.3,0.9S12,4.1,11.7,4.3l-0.2-0.6
		c0.2-0.2,0.2-0.4,0.2-0.6l-0.4,0.1l-0.6-1.7L12.1,0.8z M14.1,0.1l0.3,0.8c0.2,0.4,0.2,0.8,0.2,1.1c0,0.3-0.1,0.6-0.3,0.9
		s-0.4,0.5-0.7,0.7l-0.2-0.6c0.2-0.2,0.2-0.4,0.2-0.6l-0.4,0.1l-0.6-1.7L14.1,0.1z"/>
</g>
</svg>
