<?xml version="1.0" encoding="utf-8"?>
<!-- Generator: Adobe Illustrator 28.0.0, SVG Export Plug-In . SVG Version: 6.00 Build 0)  -->
<svg version="1.1" id="Layer_1" xmlns="http://www.w3.org/2000/svg" xmlns:xlink="http://www.w3.org/1999/xlink" x="0px" y="0px"
	 viewBox="0 0 16 16" style="enable-background:new 0 0 16 16;" xml:space="preserve">
<style type="text/css">
	.st0{fill:#8EEF96;}
	.st1{display:none;fill:none;stroke:#8EEF97;stroke-width:2;}
</style>
<path class="st0" d="M8,1.6c-2.8,0-6.2,2-7.5,6.1c0,0.2,0,0.4,0,0.6c1.2,4.3,4.8,6.1,7.5,6.1s6.2-1.9,7.5-6.1c0-0.2,0-0.4,0-0.6
	C14.3,3.6,10.8,1.6,8,1.6z M8,3.7c2.3,0,4.3,1.9,4.3,4.3s-1.9,4.3-4.3,4.3S3.7,10.3,3.7,8S5.7,3.7,8,3.7z M8,5.9
	c-1.2,0-2.1,1-2.1,2.1s1,2.1,2.1,2.1s2.1-1,2.1-2.1S9.2,5.9,8,5.9z"/>
<circle class="st1" cx="8" cy="8" r="6.9"/>
</svg>
