<?xml version="1.0" encoding="utf-8"?>
<!-- Generator: Adobe Illustrator 28.0.0, SVG Export Plug-In . SVG Version: 6.00 Build 0)  -->
<svg version="1.1" id="Layer_1" xmlns="http://www.w3.org/2000/svg" xmlns:xlink="http://www.w3.org/1999/xlink" x="0px" y="0px"
	 viewBox="0 0 16 16" style="enable-background:new 0 0 16 16;" xml:space="preserve">
<style type="text/css">
	.st0{fill:#E0E0E0;}
</style>
<path class="st0" d="M14.7,5c-0.6-1-1.8-1.3-2.7-0.7c-0.3,0.2-0.6,0.4-0.7,0.7H11V2c0-0.6-0.4-1-1-1H2C1.4,1,1,1.4,1,2v8
	c0,0.6,0.4,1,1,1h3v0.2C4,11.8,3.7,13,4.3,14S6,15.3,7,14.7c1-0.6,1.3-1.8,0.7-2.7c-0.2-0.3-0.4-0.6-0.7-0.7V11h3c0.6,0,1-0.4,1-1V7
	h0.2C11.8,8,13,8.3,14,7.7S15.3,6,14.7,5z M3.9,10.6C3,10.6,2.3,9.9,2.3,9l0-2.3l1.3,0l0-2.6L2.9,2.8l0.6-1.3l0.6,0l0.7,1.3L4.1,4.1
	l0,2.6l1.3,0l0,2.3C5.5,9.9,4.8,10.6,3.9,10.6z M8.6,5.2l0.1,4.7c0,0.4-0.3,0.7-0.6,0.7c-0.4,0-0.6-0.3-0.6-0.6L7.3,5.2
	C6.8,5,6.4,4.6,6.2,4.1C5.8,3,6.3,1.9,7.3,1.5l0,1.9C7.3,3.7,7.6,4,7.9,4s0.6-0.3,0.6-0.7l0-1.9c0.5,0.2,1,0.6,1.2,1.2
	C10.1,3.7,9.6,4.8,8.6,5.2z"/>
</svg>
