<?xml version="1.0" encoding="utf-8"?>
<!-- Generator: Adobe Illustrator 28.0.0, SVG Export Plug-In . SVG Version: 6.00 Build 0)  -->
<svg version="1.1" id="Layer_1" xmlns="http://www.w3.org/2000/svg" xmlns:xlink="http://www.w3.org/1999/xlink" x="0px" y="0px"
	 viewBox="0 0 16 16" style="enable-background:new 0 0 16 16;" xml:space="preserve">
<style type="text/css">
	.st0{fill:#E0E0E0;}
</style>
<path class="st0" d="M8.8,4.8v9h2v-3h1c1.6,0,3-1.4,3-3s-1.4-3-3-3h-3V4.8z M10.9,6.8h1c0.5,0,1,0.5,1,1s-0.5,1-1,1h-1V6.8z
	 M5.8,11.9c-0.5,0-1,0.5-1,1s0.5,1,1,1s1-0.5,1-1C6.8,12.3,6.3,11.9,5.8,11.9z"/>
<path class="st0" d="M2.7,0.7L2,2l0.6,1.3l0,2.7L1.2,6l0,2.3c0,0.9,0.7,1.7,1.6,1.7c0.9,0,1.7-0.7,1.7-1.6l0-2.3l-1.3,0l0-2.7L4,2.1
	L3.3,0.7L2.7,0.7z M6.6,0.9C5.6,1.3,5,2.4,5.4,3.4C5.6,4,6,4.5,6.6,4.7L6.5,9.4c0,0.4,0.3,0.7,0.7,0.7c0.4,0,0.7-0.3,0.7-0.7
	l0.1-4.8c1-0.4,1.6-1.5,1.2-2.5C9,1.6,8.5,1.2,8,0.9l0,1.9c0,0.4-0.3,0.7-0.7,0.7c-0.4,0-0.7-0.3-0.7-0.7L6.6,0.9z"/>
</svg>
