<?xml version="1.0" encoding="utf-8"?>
<!-- Generator: Adobe Illustrator 28.0.0, SVG Export Plug-In . SVG Version: 6.00 Build 0)  -->
<svg version="1.1" id="Layer_1" xmlns="http://www.w3.org/2000/svg" xmlns:xlink="http://www.w3.org/1999/xlink" x="0px" y="0px"
	 viewBox="0 0 16 16" style="enable-background:new 0 0 16 16;" xml:space="preserve">
<style type="text/css">
	.st0{fill:#E0E0E0;}
</style>
<path class="st0" d="M7.1,4.8v7.3h1.6V9.7h0.8c1.3,0,2.4-1.1,2.4-2.4s-1.1-2.4-2.4-2.4H7.1z M8.8,6.4h0.8c0.4,0,0.8,0.4,0.8,0.8
	S10,8,9.6,8H8.8V6.4z M4.7,10.5c-0.4,0-0.8,0.4-0.8,0.8c0,0.4,0.4,0.8,0.8,0.8s0.8-0.4,0.8-0.8C5.5,10.8,5.1,10.5,4.7,10.5z"/>
<g>
	<path class="st0" d="M0.2,8.8l0-1.6c0.4,0,0.7-0.2,0.9-0.4c0.2-0.3,0.3-0.9,0.3-1.9c0-0.8,0-1.3,0.1-1.7c0-0.4,0.2-0.7,0.3-0.9
		c0.2-0.2,0.4-0.4,0.7-0.5c0.3-0.1,0.7-0.2,1.2-0.2l0.3,0l0,1.6C3.4,3.1,3.1,3.2,3,3.3C2.9,3.4,2.8,3.7,2.8,4.1c0,1.1,0,1.8-0.1,2.1
		c0,0.3-0.1,0.6-0.2,0.9C2.3,7.4,2.1,7.7,1.8,8c0.3,0.2,0.6,0.5,0.7,0.9c0.1,0.3,0.2,0.8,0.3,1.5l0.1,2c0,0.2,0.1,0.3,0.2,0.4
		c0.1,0.1,0.4,0.1,0.8,0.1l0,1.6H3.6c-0.6,0-1-0.1-1.3-0.2s-0.5-0.4-0.7-0.8c-0.1-0.4-0.2-1-0.2-1.8c0-0.9,0-1.5-0.1-1.8
		C1.3,9.6,1.2,9.4,1,9.1S0.6,8.8,0.2,8.8z"/>
	<path class="st0" d="M15.8,8.8c-0.4,0-0.7,0.2-0.9,0.4c-0.2,0.3-0.3,0.9-0.3,1.9c0,0.8,0,1.3-0.1,1.7c0,0.4-0.1,0.7-0.3,0.9
		c-0.2,0.2-0.4,0.4-0.7,0.5c-0.3,0.1-0.7,0.2-1.2,0.2l-0.3,0l0-1.6c0.5,0,0.8-0.1,0.9-0.2s0.2-0.4,0.2-0.8c0-1.2,0.1-1.9,0.1-2.2
		c0-0.3,0.1-0.6,0.3-0.9s0.3-0.5,0.6-0.7c-0.3-0.3-0.5-0.5-0.6-0.7s-0.2-0.5-0.2-0.8s-0.1-0.8-0.1-1.6c0-0.8,0-1.2-0.1-1.3
		c0-0.1-0.1-0.2-0.2-0.3c-0.1-0.1-0.4-0.1-0.8-0.1l0-1.6h0.3c0.6,0,1,0.1,1.3,0.2c0.3,0.2,0.5,0.4,0.7,0.8c0.1,0.4,0.2,1,0.2,1.8
		c0,1,0,1.6,0.1,1.8c0.1,0.2,0.2,0.5,0.3,0.7c0.1,0.2,0.4,0.3,0.8,0.3L15.8,8.8z"/>
</g>
</svg>
