<?xml version="1.0" encoding="utf-8"?>
<!-- Generator: Adobe Illustrator 28.0.0, SVG Export Plug-In . SVG Version: 6.00 Build 0)  -->
<svg version="1.1" id="Layer_1" xmlns="http://www.w3.org/2000/svg" xmlns:xlink="http://www.w3.org/1999/xlink" x="0px" y="0px"
	 viewBox="0 0 16 16" style="enable-background:new 0 0 16 16;" xml:space="preserve">
<style type="text/css">
	.st0{fill:#E0E0E0;}
</style>
<path class="st0" d="M3.3,0.5V2H1.9v1.4h1.4v2.8H1.9v1.4h1.4V9h1.4V7.6h2.8V9H9V7.6h1.4V6.2H9V3.4h1.4V2H9V0.5H7.6V2H4.7V0.5H3.3z
	 M4.7,3.4h2.8v2.8H4.7V3.4z"/>
<g>
	<path class="st0" d="M3.8,15.1c0,0.1-0.3,0.1-1,0.1c-0.7,0-1,0-1-0.1v-3.7H1.5c-0.1,0-0.2-0.1-0.3-0.2c-0.1-0.1-0.1-0.3-0.1-0.5
		c0-0.8,0.2-1.2,0.7-1.2c0.3,0,0.6,0.1,0.8,0.3C2.9,10,3,10.2,3,10.5c0.2-0.3,0.4-0.5,0.6-0.7c0.3-0.2,0.5-0.3,0.8-0.3
		c0.4,0,0.7,0.1,0.8,0.3c0,0.1,0,0.1,0,0.3s0,0.3-0.1,0.6C5.1,11,5,11.2,4.9,11.3c-0.1,0.1-0.1,0.2-0.1,0.2c0,0-0.1,0-0.2-0.1
		c-0.1-0.1-0.2-0.1-0.3-0.1c-0.3,0-0.4,0.2-0.4,0.7V15.1z"/>
	<path class="st0" d="M10,14.9c-0.5,0.3-1.1,0.4-1.8,0.4c-0.7,0-1.4-0.3-1.9-0.8c-0.5-0.5-0.8-1.2-0.8-2.1c0-0.9,0.2-1.6,0.7-2.2
		c0.5-0.5,1.1-0.8,1.9-0.8c0.7,0,1.3,0.2,1.7,0.6s0.6,0.8,0.6,1.4c0,1.2-0.7,1.8-2.1,1.8H7.7c0,0.2,0.1,0.4,0.2,0.5
		c0.1,0.1,0.3,0.1,0.5,0.1c0.5,0,1-0.1,1.5-0.4c0,0,0,0,0.1,0.2c0.2,0.3,0.3,0.6,0.3,0.8C10.3,14.6,10.2,14.8,10,14.9z M8.6,11.6
		c0-0.3-0.2-0.5-0.5-0.5c-0.1,0-0.3,0-0.4,0.1c-0.1,0.1-0.2,0.2-0.2,0.4V12h0.6C8.5,12,8.6,11.9,8.6,11.6z"/>
	<path class="st0" d="M11.7,11.1h-0.5c-0.1,0-0.2-0.2-0.2-0.7c0-0.5,0.1-0.7,0.2-0.7h0.5V9.3c0-0.8,0.2-1.3,0.5-1.6
		c0.3-0.3,0.8-0.5,1.4-0.5c0.6,0,1.1,0.1,1.6,0.3c0.1,0,0.1,0.1,0.1,0.2c0,0.1-0.1,0.4-0.2,0.7c-0.1,0.3-0.2,0.5-0.3,0.5
		c-0.3-0.2-0.5-0.2-0.8-0.2c-0.3,0-0.4,0.2-0.4,0.6v0.2h0.9c0.1,0,0.2,0.2,0.2,0.7c0,0.5-0.1,0.8-0.3,0.8h-0.7v4
		c0,0.1-0.3,0.1-1,0.1c-0.7,0-1,0-1-0.1V11.1z"/>
</g>
</svg>
