<?xml version="1.0" encoding="utf-8"?>
<!-- Generator: Adobe Illustrator 28.0.0, SVG Export Plug-In . SVG Version: 6.00 Build 0)  -->
<svg version="1.1" id="Layer_1" xmlns="http://www.w3.org/2000/svg" xmlns:xlink="http://www.w3.org/1999/xlink" x="0px" y="0px"
	 viewBox="0 0 16 16" style="enable-background:new 0 0 16 16;" xml:space="preserve">
<style type="text/css">
	.st0{fill:#E0E0E0;}
</style>
<path class="st0" d="M1,5.4v9c0,0.6,0.4,1,1,1h13v-2H3v-6h2v3c0,0.6,0.4,1,1,1h9v-2H7v-2h8v-2H3"/>
<g>
	<polygon class="st0" points="11.4,3.1 10.5,1.2 8.6,1.5 9.4,3.4 	"/>
	<polygon class="st0" points="15.1,2.6 14.8,0.6 12.5,0.9 13.3,2.8 	"/>
	<polygon class="st0" points="7.4,3.7 6.6,1.8 4.6,2.1 5.4,4 	"/>
	<polygon class="st0" points="3.4,4.3 2.6,2.4 0.9,2.6 1.2,4.6 	"/>
</g>
</svg>
