<?xml version="1.0" encoding="utf-8"?>
<!-- Generator: Adobe Illustrator 28.0.0, SVG Export Plug-In . SVG Version: 6.00 Build 0)  -->
<svg version="1.1" id="Layer_1" xmlns="http://www.w3.org/2000/svg" xmlns:xlink="http://www.w3.org/1999/xlink" x="0px" y="0px"
	 viewBox="0 0 16 16" style="enable-background:new 0 0 16 16;" xml:space="preserve">
<style type="text/css">
	.st0{fill:#E0E0E0;}
</style>
<path class="st0" d="M0.6,0.6v5.3l1.9-1.9l2.7,2.7l1.4-1.4L3.9,2.5l1.9-1.9L0.6,0.6L0.6,0.6z M10.1,0.6l1.9,1.9L9.4,5.2l1.4,1.4
	l2.7-2.7l1.9,1.9V0.6L10.1,0.6L10.1,0.6z M5.2,9.4l-2.7,2.7l-1.9-1.9v5.3h5.3l-1.9-1.9l2.7-2.7L5.2,9.4L5.2,9.4z M10.8,9.4l-1.4,1.4
	l2.7,2.7l-1.9,1.9h5.3v-5.3l-1.9,1.9L10.8,9.4L10.8,9.4z"/>
<g>
	<polygon class="st0" points="5.3,13.5 6.8,15 9.2,15 10.7,13.5 	"/>
	<polygon class="st0" points="10.7,2.5 9.2,1 6.8,1 5.3,2.5 	"/>
	<polygon class="st0" points="13.8,5.6 13.8,10.4 15,9.2 15,6.8 	"/>
	<polygon class="st0" points="2.2,10.4 2.2,5.6 1,6.8 1,9.2 	"/>
</g>
</svg>
