<?xml version="1.0" encoding="utf-8"?>
<!-- Generator: Adobe Illustrator 28.0.0, SVG Export Plug-In . SVG Version: 6.00 Build 0)  -->
<svg version="1.1" id="Layer_1" xmlns="http://www.w3.org/2000/svg" xmlns:xlink="http://www.w3.org/1999/xlink" x="0px" y="0px"
	 viewBox="0 0 16 16" style="enable-background:new 0 0 16 16;" xml:space="preserve">
<style type="text/css">
	.st0{fill:#E0E0E0;}
</style>
<path class="st0" d="M5,4L4,5l1,1L4,7l1,1l2-2L5,4z M7,7v1h2V7H7z"/>
<path class="st0" d="M5,9l5.5-5.5L8,1h7v7l-2.5-2.5L7,11L5,9z M12,15H4c-1.7,0-3-1.3-3-3V4c0-1.7,1.3-3,3-3h2c0.6,0,1,0.4,1,1
	S6.6,3,6,3H4C3.4,3,3,3.4,3,4v8c0,0.6,0.4,1,1,1h8c0.6,0,1-0.4,1-1v-2c0-0.6,0.4-1,1-1s1,0.4,1,1v2C15,13.7,13.7,15,12,15z"/>
</svg>
