<?xml version="1.0" encoding="utf-8"?>
<!-- Generator: Adobe Illustrator 28.0.0, SVG Export Plug-In . SVG Version: 6.00 Build 0)  -->
<svg version="1.1" id="Layer_1" xmlns="http://www.w3.org/2000/svg" xmlns:xlink="http://www.w3.org/1999/xlink" x="0px" y="0px"
	 viewBox="0 0 16 16" style="enable-background:new 0 0 16 16;" xml:space="preserve">
<style type="text/css">
	.st0{fill:#E0E0E0;}
</style>
<g>
	<path class="st0" d="M12.9,15H3.1C2,15,1,13.9,1,12.5v-9C1,2.1,2,1,3.1,1h9.8C14,1,15,2.1,15,3.5v9C15,13.9,14,15,12.9,15z
		 M3.1,2.5c-0.5,0-0.9,0.5-0.9,1v9c0,0.6,0.4,1,0.9,1h9.8c0.5,0,0.9-0.5,0.9-1v-9c0-0.6-0.4-1-0.9-1H3.1z"/>
</g>
<path class="st0" d="M3.8,3.8v3l1.1-1.1l1.5,1.5l0.8-0.8L5.7,4.9l1.1-1.1L3.8,3.8L3.8,3.8z M9.2,3.8l1.1,1.1L8.8,6.4l0.8,0.8
	l1.5-1.5l1.1,1.1v-3L9.2,3.8L9.2,3.8z M6.4,8.8l-1.5,1.5L3.8,9.2v3h3l-1.1-1.1l1.5-1.5L6.4,8.8L6.4,8.8z M9.6,8.8L8.8,9.6l1.5,1.5
	l-1.1,1.1h3v-3l-1.1,1.1L9.6,8.8L9.6,8.8z"/>
<path class="st0" d="M19.8,1c-1.1,0-2,0.9-2,2v1h14V3c0-1.1-0.9-2-2-2H19.8z M28.8,2h1v1h-1V2z M17.8,5v8c0,1.1,0.9,2,2,2h10
	c1.1,0,2-0.9,2-2V5H17.8z"/>
</svg>
