<?xml version="1.0" encoding="utf-8"?>
<!-- Generator: Adobe Illustrator 28.0.0, SVG Export Plug-In . SVG Version: 6.00 Build 0)  -->
<svg version="1.1" id="Layer_1" xmlns="http://www.w3.org/2000/svg" xmlns:xlink="http://www.w3.org/1999/xlink" x="0px" y="0px"
	 viewBox="0 0 16 16" style="enable-background:new 0 0 16 16;" xml:space="preserve">
<style type="text/css">
	.st0{fill:#E0E0E0;}
</style>
<g>
	<g>
		<circle class="st0" cx="7.9" cy="13.2" r="1"/>
	</g>
	<g>
		<circle class="st0" cx="13.9" cy="13.2" r="1"/>
	</g>
	<g>
		<circle class="st0" cx="10.9" cy="13.2" r="1"/>
	</g>
</g>
<g>
	<polygon class="st0" points="11.2,4.5 10.3,2.6 8.4,2.9 9.2,4.8 	"/>
	<polygon class="st0" points="14.9,4 14.6,2 12.3,2.3 13.1,4.2 	"/>
	<polygon class="st0" points="7.2,5.1 6.4,3.2 4.4,3.5 5.2,5.4 	"/>
	<polygon class="st0" points="3.2,5.7 2.4,3.8 0.7,4 1,6 	"/>
	<path class="st0" d="M7.9,11.5c0.6,0,1.1,0.2,1.5,0.5c0.4-0.3,0.9-0.5,1.5-0.5s1.1,0.2,1.5,0.5c0.4-0.3,0.9-0.5,1.5-0.5
		c0.4,0,0.8,0.1,1.1,0.3V7H1v6c0,1.1,0.9,2,2,2h2.6c-0.1-0.3-0.2-0.6-0.2-1C5.4,12.6,6.5,11.5,7.9,11.5z"/>
	<path class="st0" d="M6.9,14c0,0.6,0.4,1,1,1c0.2,0,0.5-0.1,0.6-0.2c-0.1-0.2-0.1-0.5-0.1-0.8s0.1-0.5,0.1-0.8
		C8.3,13.1,8.1,13,7.9,13C7.3,13,6.9,13.4,6.9,14z"/>
	<path class="st0" d="M13.2,14.8c0.2,0.1,0.4,0.2,0.6,0.2c0.6,0,1-0.4,1-1s-0.4-1-1-1c-0.2,0-0.5,0.1-0.6,0.2
		c0.1,0.2,0.1,0.5,0.1,0.8S13.3,14.5,13.2,14.8z"/>
	<circle class="st0" cx="10.9" cy="14" r="1"/>
</g>
</svg>
