<?xml version="1.0" encoding="utf-8"?>
<!-- Generator: Adobe Illustrator 28.0.0, SVG Export Plug-In . SVG Version: 6.00 Build 0)  -->
<svg version="1.1" id="Layer_1" xmlns="http://www.w3.org/2000/svg" xmlns:xlink="http://www.w3.org/1999/xlink" x="0px" y="0px"
	 viewBox="0 0 16 16" style="enable-background:new 0 0 16 16;" xml:space="preserve">
<style type="text/css">
	.st0{fill:#E0E0E0;}
</style>
<g>
	<path class="st0" d="M-6.1,9h-9.8C-17,9-18,7.9-18,6.5v-9c0-1.4,1-2.5,2.1-2.5h9.8C-4.9-5-4-3.9-4-2.5v9C-4,7.9-4.9,9-6.1,9z
		 M-15.8-3.5c-0.5,0-0.9,0.5-0.9,1v9c0,0.6,0.4,1,0.9,1h9.8c0.5,0,0.9-0.5,0.9-1v-9c0-0.6-0.4-1-0.9-1H-15.8z"/>
</g>
<path class="st0" d="M-15.2-2.2v3l1.1-1.1l1.5,1.5l0.8-0.8l-1.5-1.5l1.1-1.1L-15.2-2.2L-15.2-2.2z M-9.8-2.2l1.1,1.1l-1.5,1.5
	l0.8,0.8l1.5-1.5l1.1,1.1v-3L-9.8-2.2L-9.8-2.2z M-12.6,2.8l-1.5,1.5l-1.1-1.1v3h3l-1.1-1.1l1.5-1.5L-12.6,2.8L-12.6,2.8z M-9.3,2.8
	l-0.8,0.8l1.5,1.5l-1.1,1.1h3v-3l-1.1,1.1L-9.3,2.8L-9.3,2.8z"/>
<path class="st0" d="M3,1C1.9,1,1,1.9,1,3v1h14V3c0-1.1-0.9-2-2-2H3z M12,2h1v1h-1V2z M1,5v8c0,1.1,0.9,2,2,2h10c1.1,0,2-0.9,2-2V5
	H1z"/>
</svg>
